<svg xmlns="http://www.w3.org/2000/svg" viewBox="0 0 800 500" width="800" height="500">
  <!-- Background -->
  <rect width="800" height="500" fill="#F4F8FD"/>

  <!-- Left sidebar -->
  <rect width="200" height="500" fill="#0D2340"/>
  <!-- Sidebar logo area -->
  <rect x="16" y="16" width="168" height="48" rx="10" fill="#1A73C8" opacity="0.2"/>
  <rect x="28" y="26" width="30" height="30" rx="7" fill="#1A73C8"/>
  <path d="M33 41 L37 37 L43 43 L47 37 L51 41" stroke="white" stroke-width="2" fill="none" stroke-linecap="round" stroke-linejoin="round"/>
  <text x="66" y="46" font-family="sans-serif" font-size="14" font-weight="700" fill="white">ClinicLin</text>

  <!-- Sidebar menu items -->
  <rect x="12" y="82" width="176" height="36" rx="8" fill="#1A73C8" opacity="0.15"/>
  <circle cx="32" cy="100" r="7" fill="none" stroke="#8ab4d8" stroke-width="1.5"/>
  <path d="M29 100 L31 102 L35 97" stroke="#8ab4d8" stroke-width="1.5" fill="none" stroke-linecap="round"/>
  <text x="46" y="105" font-family="sans-serif" font-size="12" fill="#8ab4d8">Dashboard</text>

  <rect x="12" y="126" width="176" height="36" rx="8" fill="#1A73C8" opacity="0.3"/>
  <path d="M26 141 C26 138 28.5 136 32 136 L38 136 C41.5 136 44 138 44 141 L44 144 C44 147 41.5 149 38 149 L32 149 C28.5 149 26 147 26 144 Z" stroke="#fff" stroke-width="1.5" fill="none"/>
  <circle cx="35" cy="139" r="3" stroke="#fff" stroke-width="1.5" fill="none"/>
  <text x="50" y="148" font-family="sans-serif" font-size="12" font-weight="600" fill="white">Equipo</text>

  <rect x="12" y="170" width="176" height="36" rx="8" fill="transparent"/>
  <rect x="26" y="179" width="18" height="14" rx="2" stroke="#8ab4d8" stroke-width="1.5" fill="none"/>
  <line x1="26" y1="184" x2="44" y2="184" stroke="#8ab4d8" stroke-width="1.5"/>
  <text x="50" y="191" font-family="sans-serif" font-size="12" fill="#8ab4d8">Pacientes</text>

  <rect x="12" y="214" width="176" height="36" rx="8" fill="transparent"/>
  <rect x="26" y="223" width="18" height="18" rx="3" stroke="#8ab4d8" stroke-width="1.5" fill="none"/>
  <line x1="28" y1="228" x2="44" y2="228" stroke="#8ab4d8" stroke-width="1.5"/>
  <line x1="28" y1="232" x2="44" y2="232" stroke="#8ab4d8" stroke-width="1.5"/>
  <text x="50" y="235" font-family="sans-serif" font-size="12" fill="#8ab4d8">Citas</text>

  <!-- Sidebar bottom user -->
  <rect x="12" y="450" width="176" height="40" rx="8" fill="#1A73C8" opacity="0.1"/>
  <circle cx="32" cy="470" r="12" fill="#1A73C8" opacity="0.5"/>
  <text x="22" y="474" font-family="sans-serif" font-size="10" font-weight="700" fill="#fff">AD</text>
  <text x="50" y="467" font-family="sans-serif" font-size="11" font-weight="600" fill="#8ab4d8">Admin</text>
  <text x="50" y="479" font-family="sans-serif" font-size="10" fill="#4a6a8a">Administrador</text>

  <!-- Main area -->
  <!-- Top bar -->
  <rect x="200" y="0" width="600" height="60" fill="white"/>
  <rect x="200" y="59" width="600" height="1" fill="#D8E5F2"/>
  <text x="220" y="35" font-family="sans-serif" font-size="16" font-weight="700" fill="#0D2340">Configuración del Equipo</text>
  <text x="220" y="50" font-family="sans-serif" font-size="11" fill="#5B6F8A">Gestiona los usuarios y sus roles</text>

  <!-- Add button -->
  <rect x="680" y="15" width="100" height="32" rx="8" fill="#1A73C8"/>
  <text x="700" y="35" font-family="sans-serif" font-size="12" font-weight="600" fill="white">+ Agregar</text>

  <!-- Stats row -->
  <rect x="216" y="76" width="120" height="70" rx="10" fill="white" stroke="#D8E5F2" stroke-width="1"/>
  <text x="230" y="100" font-family="sans-serif" font-size="11" fill="#5B6F8A">Doctores</text>
  <text x="230" y="128" font-family="sans-serif" font-size="28" font-weight="700" fill="#0D2340">8</text>

  <rect x="348" y="76" width="120" height="70" rx="10" fill="white" stroke="#D8E5F2" stroke-width="1"/>
  <text x="362" y="100" font-family="sans-serif" font-size="11" fill="#5B6F8A">Secretarias</text>
  <text x="362" y="128" font-family="sans-serif" font-size="28" font-weight="700" fill="#0D2340">3</text>

  <rect x="480" y="76" width="120" height="70" rx="10" fill="white" stroke="#D8E5F2" stroke-width="1"/>
  <text x="494" y="100" font-family="sans-serif" font-size="11" fill="#5B6F8A">Admins</text>
  <text x="494" y="128" font-family="sans-serif" font-size="28" font-weight="700" fill="#0D2340">2</text>

  <rect x="612" y="76" width="168" height="70" rx="10" fill="#EBF5FF" stroke="#1A73C8" stroke-width="1"/>
  <text x="626" y="100" font-family="sans-serif" font-size="11" fill="#1A73C8">Total usuarios</text>
  <text x="626" y="128" font-family="sans-serif" font-size="28" font-weight="700" fill="#1A73C8">13</text>

  <!-- Table -->
  <rect x="216" y="160" width="564" height="310" rx="12" fill="white" stroke="#D8E5F2" stroke-width="1"/>

  <!-- Table header -->
  <rect x="216" y="160" width="564" height="42" rx="12" fill="#F4F8FD"/>
  <rect x="216" y="186" width="564" height="16" fill="#F4F8FD"/>
  <text x="240" y="186" font-family="sans-serif" font-size="11" font-weight="600" fill="#5B6F8A" letter-spacing="0.5">NOMBRE</text>
  <text x="420" y="186" font-family="sans-serif" font-size="11" font-weight="600" fill="#5B6F8A" letter-spacing="0.5">ROL</text>
  <text x="530" y="186" font-family="sans-serif" font-size="11" font-weight="600" fill="#5B6F8A" letter-spacing="0.5">ESTADO</text>
  <text x="660" y="186" font-family="sans-serif" font-size="11" font-weight="600" fill="#5B6F8A" letter-spacing="0.5">ACCIÓN</text>

  <!-- Divider -->
  <line x1="216" y1="202" x2="780" y2="202" stroke="#D8E5F2" stroke-width="1"/>

  <!-- Row 1 -->
  <circle cx="242" cy="224" r="14" fill="#1A73C8" opacity="0.15"/>
  <text x="236" y="228" font-family="sans-serif" font-size="10" font-weight="700" fill="#1A73C8">DR</text>
  <text x="264" y="221" font-family="sans-serif" font-size="13" font-weight="600" fill="#0D2340">Dr. Ricardo Morales</text>
  <text x="264" y="234" font-family="sans-serif" font-size="11" fill="#5B6F8A">Medicina General</text>
  <rect x="410" y="213" width="76" height="22" rx="6" fill="#E8F1FB"/>
  <text x="424" y="228" font-family="sans-serif" font-size="11" font-weight="600" fill="#1A73C8">Doctor</text>
  <rect x="522" y="213" width="70" height="22" rx="6" fill="#D1FAE5"/>
  <text x="536" y="228" font-family="sans-serif" font-size="11" font-weight="600" fill="#065F46">Activo</text>
  <text x="660" y="228" font-family="sans-serif" font-size="20" fill="#D8E5F2">⋯</text>
  <line x1="216" y1="248" x2="780" y2="248" stroke="#F4F8FD" stroke-width="1"/>

  <!-- Row 2 -->
  <circle cx="242" cy="270" r="14" fill="#0EA5A0" opacity="0.15"/>
  <text x="236" y="274" font-family="sans-serif" font-size="10" font-weight="700" fill="#0EA5A0">AM</text>
  <text x="264" y="267" font-family="sans-serif" font-size="13" font-weight="600" fill="#0D2340">Dra. Ana Martínez</text>
  <text x="264" y="280" font-family="sans-serif" font-size="11" fill="#5B6F8A">Pediatría</text>
  <rect x="410" y="259" width="76" height="22" rx="6" fill="#E8F1FB"/>
  <text x="424" y="274" font-family="sans-serif" font-size="11" font-weight="600" fill="#1A73C8">Doctor</text>
  <rect x="522" y="259" width="70" height="22" rx="6" fill="#D1FAE5"/>
  <text x="536" y="274" font-family="sans-serif" font-size="11" font-weight="600" fill="#065F46">Activo</text>
  <text x="660" y="274" font-family="sans-serif" font-size="20" fill="#D8E5F2">⋯</text>
  <line x1="216" y1="294" x2="780" y2="294" stroke="#F4F8FD" stroke-width="1"/>

  <!-- Row 3 -->
  <circle cx="242" cy="316" r="14" fill="#7C3AED" opacity="0.15"/>
  <text x="236" y="320" font-family="sans-serif" font-size="10" font-weight="700" fill="#7C3AED">LG</text>
  <text x="264" y="313" font-family="sans-serif" font-size="13" font-weight="600" fill="#0D2340">Laura González</text>
  <text x="264" y="326" font-family="sans-serif" font-size="11" fill="#5B6F8A">Recepción principal</text>
  <rect x="410" y="305" width="98" height="22" rx="6" fill="#EDE9FE"/>
  <text x="420" y="320" font-family="sans-serif" font-size="11" font-weight="600" fill="#7C3AED">Secretaria</text>
  <rect x="522" y="305" width="70" height="22" rx="6" fill="#D1FAE5"/>
  <text x="536" y="320" font-family="sans-serif" font-size="11" font-weight="600" fill="#065F46">Activo</text>
  <text x="660" y="320" font-family="sans-serif" font-size="20" fill="#D8E5F2">⋯</text>
  <line x1="216" y1="340" x2="780" y2="340" stroke="#F4F8FD" stroke-width="1"/>

  <!-- Row 4 -->
  <circle cx="242" cy="362" r="14" fill="#D97706" opacity="0.15"/>
  <text x="236" y="366" font-family="sans-serif" font-size="10" font-weight="700" fill="#D97706">CV</text>
  <text x="264" y="359" font-family="sans-serif" font-size="13" font-weight="600" fill="#0D2340">Carlos Vargas</text>
  <text x="264" y="372" font-family="sans-serif" font-size="11" fill="#5B6F8A">Administración</text>
  <rect x="410" y="351" width="104" height="22" rx="6" fill="#FEF3C7"/>
  <text x="420" y="366" font-family="sans-serif" font-size="11" font-weight="600" fill="#92400E">Administrador</text>
  <rect x="522" y="351" width="70" height="22" rx="6" fill="#D1FAE5"/>
  <text x="536" y="366" font-family="sans-serif" font-size="11" font-weight="600" fill="#065F46">Activo</text>
  <text x="660" y="366" font-family="sans-serif" font-size="20" fill="#D8E5F2">⋯</text>
  <line x1="216" y1="386" x2="780" y2="386" stroke="#F4F8FD" stroke-width="1"/>

  <!-- Row 5 dimmed -->
  <circle cx="242" cy="408" r="14" fill="#5B6F8A" opacity="0.1"/>
  <text x="236" y="412" font-family="sans-serif" font-size="10" font-weight="700" fill="#5B6F8A">MR</text>
  <text x="264" y="405" font-family="sans-serif" font-size="13" font-weight="600" fill="#0D2340">María Rodríguez</text>
  <text x="264" y="418" font-family="sans-serif" font-size="11" fill="#5B6F8A">Recepción</text>
  <rect x="410" y="397" width="98" height="22" rx="6" fill="#EDE9FE"/>
  <text x="420" y="412" font-family="sans-serif" font-size="11" font-weight="600" fill="#7C3AED">Secretaria</text>
  <rect x="522" y="397" width="82" height="22" rx="6" fill="#FEF3C7"/>
  <text x="530" y="412" font-family="sans-serif" font-size="11" font-weight="600" fill="#92400E">Inactivo</text>
  <text x="660" y="412" font-family="sans-serif" font-size="20" fill="#D8E5F2">⋯</text>

  <!-- Pagination -->
  <rect x="620" y="454" width="32" height="26" rx="6" fill="#1A73C8"/>
  <text x="630" y="471" font-family="sans-serif" font-size="12" font-weight="600" fill="white">1</text>
  <rect x="656" y="454" width="32" height="26" rx="6" fill="white" stroke="#D8E5F2" stroke-width="1"/>
  <text x="666" y="471" font-family="sans-serif" font-size="12" fill="#5B6F8A">2</text>
  <rect x="692" y="454" width="32" height="26" rx="6" fill="white" stroke="#D8E5F2" stroke-width="1"/>
  <text x="702" y="471" font-family="sans-serif" font-size="12" fill="#5B6F8A">3</text>
  <text x="730" y="471" font-family="sans-serif" font-size="18" fill="#5B6F8A">›</text>
</svg>
